<svg xmlns="http://www.w3.org/2000/svg" viewBox="0 0 512 512"><path d="M400 0H112C50.144 0 0 50.144 0 112v288c0 61.856 50.144 112 112 112h288c61.856 0 112-50.144 112-112V112C512 50.144 461.856 0 400 0z" fill="#73af00"/><g fill="#f5f5f5"><path d="M76.854 191.733c1.039 6.657 5.063 8.747 8.562 8.475 4.126-.321 7.744-4.093 7.744-8.077v-22.848c0-1.144.931-2.077 2.077-2.077s2.077.933 2.077 2.077v22.946a8.289 8.289 0 003.649 6.876 8.303 8.303 0 004.657 1.432 8.346 8.346 0 003.087-.596l2.076-.83c.191 19.179-.975 36.035-.997 36.344a4.154 4.154 0 004.148 4.45 4.155 4.155 0 004.14-3.858c.097-1.351 1.377-19.81.993-40.25l1.255-.502a4.168 4.168 0 013.396.142 11.868 11.868 0 0013.698-2.223l.749-.746a12.402 12.402 0 003.008-12.755l-3.538-10.613c1.913.576 4.014-.272 4.937-2.114a4.154 4.154 0 00-1.858-5.574l-8.309-4.154a4.152 4.152 0 00-5.799 5.03l6.684 20.053a4.136 4.136 0 01-1.002 4.252l-.747.747a3.567 3.567 0 01-4.112.665c-2.693-1.345-5.757-1.597-8.633-.864-.584-13.334-2.02-26.612-5.079-35.79a4.15 4.15 0 00-5.256-2.625 4.15 4.15 0 00-2.627 5.254c2.993 8.977 4.298 22.657 4.759 36.259l-4.973 1.989v-22.946c0-5.728-4.659-10.386-10.386-10.386-5.726 0-10.386 4.657-10.386 10.386v20.11l-4.238-20.934c-.452-2.252-2.641-3.72-4.895-3.25a4.156 4.156 0 00-3.248 4.897l4.387 21.628zm7.998-34.913a4.153 4.153 0 004.154-4.154v-4.154c0-2.296-1.86-4.154-4.154-4.154s-4.154 1.858-4.154 4.154v4.154a4.153 4.153 0 004.154 4.154zm41.542-4.155h4.154c2.294 0 4.154-1.858 4.154-4.154s-1.86-4.154-4.154-4.154h-4.154c-2.294 0-4.154 1.858-4.154 4.154s1.86 4.154 4.154 4.154z"/><path d="M99.331 207.263L78.56 219.726a4.154 4.154 0 104.276 7.124l20.771-12.463a4.154 4.154 0 10-4.276-7.124z"/><path d="M155.338 214.611l.097-.066c.349 1.404.947 2.763 1.917 3.903 1.688 1.988 4.219 2.986 7.079 2.751 4.057-.296 6.816-2.15 8.641-4.544.278.191.57.365.876.519 2.245 1.132 4.842 1.047 7.314-.235 6.278-3.233 7.631-10.714 7.44-14.625-.112-2.28-2.051-3.891-4.325-3.935-2.282.097-4.057 2.033-3.976 4.312.002.053.095 4.982-2.919 6.812-.491-.686-1.075-2.227-1.294-3.501-.351-2.138-2.314-3.627-4.428-3.456-2.154.17-3.818 1.98-3.826 4.142-.002.604-.136 5.935-4.252 6.381-.479-.653-.487-3.404-.016-5.436a4.154 4.154 0 00-6.378-4.397l-2.319 1.577c-1.101-24.091-3.637-52.165-3.669-52.524-.207-2.28-2.215-3.98-4.513-3.761a4.155 4.155 0 00-3.763 4.515c.036.384 2.97 32.864 3.875 57.669-.212.202-.431.423-.639.616-1.643-4.142-4.899-6.751-9.094-7.148-5.919-.523-12.333 3.505-14.631 9.258-1.982 4.949-.734 9.814 3.177 12.39 2.811 1.854 7.055 2.438 12.39.568-1.302 4.576-3.674 9.217-6.757 12.808-2.761 3.217-7.371 6.929-13.272 6.763-3.434-.134-6.073-1.258-8.067-3.44-4.81-5.254-4.396-14.763-4.392-14.864a4.153 4.153 0 00-3.919-4.365c-2.302-.243-4.252 1.627-4.377 3.919-.028.527-.631 13.023 6.523 20.881 3.521 3.874 8.201 5.947 13.907 6.171.278.012.556.016.836.016 6.949 0 13.692-3.408 19.063-9.668 5.052-5.883 8.483-13.874 9.513-21.293-.014 14.211-8.577 30.24-19.933 37.301-4.822 2.994-12.339 5.696-20.808 1.521-10.438-5.152-9.195-17.084-9.14-17.57a4.153 4.153 0 00-3.606-4.637c-2.266-.276-4.355 1.327-4.637 3.607-.093.742-2.089 18.256 13.708 26.049 4.057 2.004 8.3 2.998 12.576 2.998 5.493 0 11.037-1.643 16.292-4.913 13.824-8.592 23.858-27.262 23.858-44.39.004-2.676-.046-5.603-.132-8.679zm-25.049 4.283c-.742-.491-.162-2.061-.037-2.373.874-2.191 3.611-4.085 5.797-4.085.112 0 .225.004.335.016.531.049 1.941.182 2.548 3.318.065.333.12.673.162 1.022-4.63 2.719-7.734 2.804-8.805 2.102zm-43.34 38.208c-1.968-1.156-4.511-.495-5.68 1.473-.191.32-.444.669-.702.986a7.19 7.19 0 01-.134-.341c-1.732-4.621-.499-11.741.124-14.094a4.157 4.157 0 00-2.947-5.079c-2.211-.568-4.485.722-5.079 2.937-.302 1.124-2.856 11.209.122 19.152 1.907 5.079 4.834 6.361 6.955 6.536.189.016.375.024.56.024 4.473 0 7.448-4.507 8.276-5.935a4.145 4.145 0 00-1.495-5.659z"/><path d="M163.612 181.745c.899 0 1.803-.288 2.564-.888l20.944-16.443c.289-.227.474-.524.685-.804 3.016-1.819 5.057-5.095 5.057-8.868 0-5.728-4.659-10.386-10.386-10.386-5.726 0-10.386 4.657-10.386 10.386 0 3.205 1.489 6.038 3.777 7.945l-14.824 11.638a4.153 4.153 0 002.569 7.42zm18.865-29.08c1.146 0 2.077.933 2.077 2.077s-.931 2.077-2.077 2.077-2.077-.933-2.077-2.077a2.08 2.08 0 012.077-2.077zm-4.917 25.141a4.146 4.146 0 00-5.256 2.625c-.444 1.331-2.452 8.183 1.619 12.252 1.58 1.582 3.657 2.373 6.207 2.369 1.704 0 3.619-.349 5.738-1.059a4.15 4.15 0 002.627-5.254 4.148 4.148 0 00-5.256-2.625c-2.32.771-3.302.645-3.391.726-.246-.617-.083-2.471.343-3.797a4.151 4.151 0 00-2.631-5.237zm47.544-17.173a4.155 4.155 0 005.152-2.824l2.424-8.308a4.154 4.154 0 00-7.976-2.328l-2.424 8.308a4.156 4.156 0 002.824 5.152zm-24.213-.487a4.139 4.139 0 002.093.568 4.156 4.156 0 002.101-7.741c-.836-.487-.722-1.862-.692-2.134.124-1.091.775-2.422 1.907-2.775a4.154 4.154 0 002.732-5.201 4.161 4.161 0 00-5.203-2.734c-4.142 1.29-7.16 5.124-7.692 9.765-.492 4.321 1.33 8.248 4.754 10.252zm-32.954 67.296a4.154 4.154 0 00-.779 8.235c.219.32.779 1.42.779 4.227 0 2.296 1.86 4.154 4.154 4.154s4.154-1.858 4.154-4.154c0-12.32-7.969-12.462-8.308-12.462zm70.478-17.201a9.677 9.677 0 001.562.126c3.264 0 6.562-1.647 9.828-4.913a4.152 4.152 0 000-5.874 4.152 4.152 0 00-5.874 0c-2.485 2.487-3.822 2.54-4.164 2.462-.793-.114-1.511-1.148-1.671-1.432a4.15 4.15 0 00-5.548-1.809 4.153 4.153 0 00-1.858 5.574c.256.515 2.656 5.042 7.725 5.866zm70.614-29.194c-.026-.065-.051-.126-.071-.183-.736-2.158-3.089-3.331-5.243-2.596a4.15 4.15 0 00-2.629 5.254c.324.974 2.174 5.858 6.759 6.475.306.041.611.061.913.061 2.878 0 5.578-1.862 8.035-5.546a4.155 4.155 0 00-6.913-4.609c-.33.491-.613.864-.851 1.144z"/><path d="M300.873 256.522c0-17.716-.779-34.335-1.86-48.896 5.899 10.23 11.205 20.568 14.586 29.585a4.157 4.157 0 007.781-2.921c-5.258-14.018-14.71-30.713-24.024-45.532-2.271-22.378-4.813-36.582-4.859-36.835-.41-2.26-2.568-3.785-4.83-3.343a4.153 4.153 0 00-3.345 4.828c.033.181 1.342 7.497 2.907 19.812a675.082 675.082 0 00-8.645-12.526l.203.065c2.189.73 4.53-.45 5.256-2.625a4.15 4.15 0 00-2.627-5.254l-12.463-4.154a4.132 4.132 0 00-4.684 1.509 4.105 4.105 0 00-.607 1.273c-2.487-1.839-5.676-3.333-8.671-2.08-1.811.751-3.97 2.641-3.97 7.392 0 3.647 1.391 7.59 2.866 11.769 2.446 6.929 3.978 12.025 1.388 14.455-1.432 1.343-2.862 1.85-4.258 1.497-2.562-.649-5.098-4.061-6.787-9.128-.073-.22-.227-.379-.331-.578.874-6.435.493-14.188-1.267-22.985a4.142 4.142 0 00-4.889-3.258 4.154 4.154 0 00-3.258 4.889c2.712 13.566 1.899 24.633-2.177 29.603-1.576 1.923-3.55 2.815-6.213 2.815-.842 0-1.416-.268-1.988-.925-3.278-3.777-3.264-15.964-2.207-23.416a4.16 4.16 0 00-4.114-4.738c-7.148 0-9.858 8.13-12.25 15.303-1.049 3.152-3.004 9.014-4.367 9.623-2.515 0-4.14-7.383-4.154-12.467a4.155 4.155 0 00-4.154-4.146h-.006a4.148 4.148 0 00-4.148 4.15c0 9.582 3.264 20.771 12.463 20.771 6.85 0 9.625-7.465 11.947-14.402.404 5.517 1.649 11.234 4.712 14.763 2.152 2.483 5.01 3.793 8.266 3.793 5.128 0 9.497-2.024 12.637-5.854.568-.693 1.059-1.489 1.543-2.293 2.413 3.43 5.371 5.69 8.705 6.532.978.247 1.962.373 2.935.373 3.207 0 6.341-1.323 9.047-3.866.563-.529.959-1.107 1.387-1.676 1.016.29 2.046.463 3.069.463 3.365 0 6.605-1.355 8.615-2.645a4.145 4.145 0 001.258-5.712 4.168 4.168 0 00-5.72-1.294c-.035.017-2.81 1.611-4.703 1.238.005-4.554-1.643-9.391-3.147-13.652-.856-2.426-1.734-4.913-2.148-6.945.343.288.677.588.976.88a4.15 4.15 0 005.872 0c.268-.268.424-.594.603-.909 4.306 5.932 13.163 18.398 22.273 32.768 1.739 17.662 3.266 40.195 3.266 64.906a4.153 4.153 0 004.154 4.154 4.153 4.153 0 004.156-4.154zm4.154-91.394c0 2.296 1.86 4.154 4.154 4.154s4.154-1.858 4.154-4.154c0-4.889-3.826-12.787-4.592-14.321a4.164 4.164 0 00-5.574-1.858 4.154 4.154 0 00-1.858 5.574c1.499 2.998 3.716 8.439 3.716 10.605zm-18.903 91.848c-2.037-1.039-4.54-.215-5.576 1.83a11.89 11.89 0 01-1.722 2.467c-.185-1.651.255-4.949 1.093-7.684a4.158 4.158 0 00-1.834-4.779 4.143 4.143 0 00-5.075.621l-8.309 8.308a4.152 4.152 0 000 5.874 4.152 4.152 0 005.874 0l.211-.211c.359 1.667 1.047 3.189 2.223 4.365 1.558 1.558 3.44 2.381 5.398 2.381.379 0 .761-.032 1.142-.093 4.706-.763 7.635-5.951 8.422-7.521a4.145 4.145 0 00-1.847-5.558z"/><path d="M284.515 223.547h-29.278c.26-1.035.527-2.02.799-2.957 11.676-2.426 18.615-6.195 20.656-11.225.706-1.744 1.442-5.27-1.562-9.323-2.708-3.651-6.531-5.29-10.501-4.479-5.903 1.197-11.163 7.558-14.937 17.741-11.727 2.008-19.235 6.217-23.986 10.372-1.686-17.023-8.294-27.136-8.615-27.618a4.155 4.155 0 00-6.913 4.609c.075.114 7.611 11.639 7.611 30.93 0 18.962-15.12 33.234-24.925 33.234-4.665 0-6.706-5.545-7.604-10.232 9.601-6.729 18.072-14.515 19.943-21.995 2.532-10.122-.655-17.583-2.763-22.52a52.657 52.657 0 01-.308-.722c.089.081.174.166.26.247a4.15 4.15 0 005.872 0 4.152 4.152 0 000-5.874c-2.428-2.43-7.144-6.248-11.43-4.454-1.811.75-3.97 2.641-3.97 7.392 0 2.146.897 4.243 1.935 6.678 1.87 4.377 4.197 9.826 2.343 17.242-1.097 4.388-6.487 9.712-13.598 14.997-.762-.911-1.864-1.524-3.143-1.524h-.006a4.15 4.15 0 00-4.148 4.15c0 .747.032 1.547.081 2.366-8.89 5.758-18.951 11.087-26.727 14.624a4.155 4.155 0 001.722 7.935c.576 0 1.16-.118 1.716-.373 2.336-1.062 13.423-6.227 24.811-13.285 2.097 7.122 6.542 13.659 15.013 13.659 9.966 0 21.272-8.149 27.796-20.316a24.188 24.188 0 002.772 3.967c10.457 12.057 30.881 12.195 31.745 12.195a4.154 4.154 0 00.298-8.296c-.032-.004-3.343-.369-5.185-2.519-1.111-1.298-1.556-3.083-1.359-5.456.426-5.12 16.939-8.945 31.494-9.173a4.16 4.16 0 003.852-2.763l4.154-11.684a4.148 4.148 0 00-.521-3.785 4.146 4.146 0 00-3.394-1.765zm-18.235-19.838c.079-.016.185-.041.316-.041.398 0 1.024.195 1.86 1.323.158.211.663.933.535 1.25-.477 1.176-3.345 3.12-9.321 4.88 2.63-5.128 5.2-7.128 6.61-7.412zm-25.088 54.61c-4.221-1.371-8.521-3.546-11.499-6.99-3.272-3.785-4.481-8.572-3.688-14.629.12-.318.391-.946.866-1.762 5.85-.536 21.478 1.77 22.561 6.246-4.821 2.461-8.371 5.92-8.782 10.839-.204 2.466.047 4.555.542 6.296zm88.548-94.505l-4.154-12.463c-.669-2.004-2.749-3.201-4.81-2.746a4.152 4.152 0 00-3.266 4.475c2.866 28.666 8.288 84.57 8.288 90.98 0 5.757-10.24 17.092-26.784 25.364a4.154 4.154 0 103.716 7.432c15.112-7.558 31.376-21.043 31.376-32.796 0-6.138-4.246-50.301-6.678-75.109a4.158 4.158 0 002.312-5.137zm34.664 37.485a4.152 4.152 0 004.992.673 4.16 4.16 0 001.972-4.637c-.745-2.921-.992-6.572-.598-8.065 2.081.065 4.012-1.416 4.318-3.562a4.155 4.155 0 00-3.523-4.702c-2.747-.373-5.158.434-6.844 2.308-1.091 1.217-1.74 2.779-2.093 4.458l-4.811-4.811a4.152 4.152 0 00-5.874 0 4.152 4.152 0 000 5.874l12.461 12.464zm9.345 4.333l-15.579 11.165a4.155 4.155 0 00-.957 5.797 4.147 4.147 0 003.381 1.732 4.12 4.12 0 002.416-.779l15.578-11.164a4.155 4.155 0 00.957-5.797c-1.338-1.867-3.938-2.301-5.796-.954zm-1.38 15.623a4.156 4.156 0 00.363 5.509c.178.3.988 1.891.842 5.98a4.154 4.154 0 004.154 4.304 4.156 4.156 0 004.15-4.004c.302-8.479-2.473-11.578-3.68-12.516-1.806-1.415-4.421-1.082-5.829.727z"/><path d="M408.624 251.848a4.153 4.153 0 004.154-4.154c0-6.13-.315-12.972-.83-20.091 4.119 6.75 7.541 12.973 9.735 18.091a4.147 4.147 0 005.455 2.182 4.153 4.153 0 002.181-5.452c-3.803-8.876-10.911-20.633-19.006-32.771-1.63-15.248-3.758-30.188-5.412-40.906a4.023 4.023 0 002.594-.645c1.312-.841 1.927-2.3 1.839-3.753.107.408.221.818.459 1.193.028.04 2.698 4.45 1.513 10.171a4.156 4.156 0 004.073 4.994 4.159 4.159 0 004.065-3.315c1.876-9.075-2.456-16.021-2.641-16.313a4.166 4.166 0 00-5.736-1.274c-1.318.84-1.941 2.301-1.855 3.756-.108-.411-.226-.824-.468-1.201l-7.01-10.905a4.164 4.164 0 00-5.006-1.623 4.154 4.154 0 00-2.58 4.588c.058.327 3.233 18.557 6.046 40.529a884.906 884.906 0 00-9.458-13.091 1592.432 1592.432 0 00-1.441-16.901 4.154 4.154 0 002.534-5.842l-4.154-8.309a4.16 4.16 0 00-4.87-2.134 4.16 4.16 0 00-2.98 4.406c.496 4.958 1.011 10.446 1.518 16.211a1162.279 1162.279 0 00-7.139-9.318 4.154 4.154 0 00-.85-6.868l-8.309-4.154a4.162 4.162 0 00-5.089 1.104 4.159 4.159 0 00-.012 5.209c.224.279 10.452 13.101 22.688 29.651 2.122 27.448 3.535 56 1.539 61.986-.365 1.095-1.002 2.385-1.6 2.43-2.511.349-8.503-5.266-11.513-11.282-1.734-3.465-4.229-3.826-5.564-3.765-4.465.276-6.207 5.189-9.373 14.106-2.27 6.39-5.089 14.333-8.256 17.583-1.715-2.096-3.933-9.128-5.166-16.356.579 1.598 2.074 2.753 3.871 2.753a4.153 4.153 0 004.154-4.154c0-6.195-4.333-53.376-6.753-79.235a4.152 4.152 0 002.385-5.164l-4.154-12.463a4.155 4.155 0 00-8.077 1.707c2.823 29.636 8.117 86.878 8.282 94.778-.01-.071-.025-.141-.035-.212-.323-2.272-2.442-3.83-4.7-3.525a4.156 4.156 0 00-3.523 4.702c1.213 8.491 4.313 23.092 11.453 25.469a6.934 6.934 0 002.213.361c1.637 0 3.718-.58 5.846-2.71 4.525-4.523 7.586-13.148 10.288-20.755.611-1.72 1.333-3.757 2.014-5.501 3.811 5.566 10.461 12.495 17.197 11.952 2.369-.17 6.678-1.444 8.893-8.089 2.209-6.627 1.336-29.739-.153-51.865 3.5 4.905 7.003 9.928 10.346 14.89 1.296 12.44 2.223 24.904 2.223 35.141a4.153 4.153 0 004.155 4.153z"/><path d="M440.15 229.998c-2.943-21.923-7.043-47.319-9.639-62.906a4.092 4.092 0 003.481-.738 4.153 4.153 0 00.783-5.822l-7.53-9.866a4.156 4.156 0 00-7.396 3.233c.075.426 7.483 43.072 12.065 77.202 1.75 13.043-.805 24.698-6.84 31.173-3.878 4.158-9.018 6.041-15.238 5.68-2.284-.122-4.264 1.598-4.408 3.887a4.155 4.155 0 003.885 4.406c.702.045 1.393.065 2.079.065 7.834 0 14.633-2.872 19.759-8.373 7.828-8.399 11.108-22.229 8.999-37.941zm-45.701 27.384c-1.527 1.659-1.41 4.272.205 5.838.225.219.495.649.497.86.002.118-.166.466-.629.929a4.152 4.152 0 002.937 7.091 4.141 4.141 0 002.937-1.217c2.635-2.633 3.118-5.306 3.059-7.087-.128-3.834-2.738-6.309-3.26-6.767-1.695-1.477-4.221-1.299-5.746.353zm-14.645 91.104h-29.08v-4.154c0-2.296-1.86-4.154-4.154-4.154s-4.154 1.858-4.154 4.154v4.154H122.24c8.308 8.309 24.925 12.463 37.388 12.463h182.787v8.308a4.153 4.153 0 004.154 4.154h33.234c6.872 0 12.463-5.59 12.463-12.463 0-6.871-5.59-12.462-12.462-12.462zm0 16.617h-29.08v-4.154h33.234l-.745-2.236c.432.655.745 1.394.745 2.236a4.158 4.158 0 01-4.154 4.154z"/></g></svg>