<svg xmlns="http://www.w3.org/2000/svg" viewBox="0 0 512 512"><path d="M400 0H112C50.144 0 0 50.144 0 112v288c0 61.856 50.144 112 112 112h288c61.856 0 112-50.144 112-112V112C512 50.144 461.856 0 400 0z" fill="#f5f5f5"/><path d="M305.008 182.532c-40.562-27.042-95.35-15.985-122.374 24.507-13.555 20.211-8.046 47.674 12.235 61.195 20.265 13.521 47.64 8.03 61.161-12.252 13.521-20.281 40.914-25.704 61.179-12.253 20.297 13.521 25.756 40.984 12.217 61.195 27.042-40.562 16.111-95.35-24.418-122.392" fill="#ff4b55"/><path d="M182.634 207.039c-13.555 20.211-8.046 47.674 12.235 61.195 20.265 13.521 47.64 8.03 61.161-12.252 13.521-20.281 40.914-25.704 61.179-12.253 20.297 13.521 25.756 40.984 12.217 61.195-27.005 40.633-81.776 51.548-122.338 24.507-40.527-27.041-51.495-81.829-24.454-122.392" fill="#41479b"/><path d="M349.921 149.189l16.035 24.101a4.414 4.414 0 01-1.219 6.112l-4.066 2.723a4.413 4.413 0 01-6.129-1.22l-16.055-24.096a4.413 4.413 0 011.222-6.118l4.086-2.728a4.415 4.415 0 016.126 1.226zm24.739 37.162l16.087 24.087a4.414 4.414 0 01-1.237 6.134l-4.083 2.699a4.414 4.414 0 01-6.103-1.23l-16.078-24.061a4.414 4.414 0 011.217-6.122l4.074-2.724a4.412 4.412 0 016.123 1.217zm-7.572-48.618l40.829 61.274a4.413 4.413 0 01-1.225 6.12l-4.102 2.735a4.414 4.414 0 01-6.121-1.224l-40.843-61.269a4.413 4.413 0 011.227-6.122l4.115-2.739a4.413 4.413 0 016.12 1.225zm17.123-11.442l16.07 24.149a4.415 4.415 0 01-1.241 6.128l-4.087 2.701a4.414 4.414 0 01-6.106-1.234l-16.082-24.117a4.413 4.413 0 011.224-6.121l4.099-2.732a4.413 4.413 0 016.123 1.226zm24.756 37.24l16.046 24.099a4.413 4.413 0 01-1.221 6.115l-4.075 2.725a4.413 4.413 0 01-6.127-1.223l-16.046-24.099a4.413 4.413 0 011.221-6.115l4.075-2.725a4.413 4.413 0 016.127 1.223zM132.72 293.982l40.824 61.208a4.414 4.414 0 01-1.221 6.12l-4.089 2.73a4.414 4.414 0 01-6.123-1.222l-40.824-61.208a4.415 4.415 0 011.221-6.12l4.089-2.73a4.414 4.414 0 016.123 1.222zm-17.138 11.449l16.027 24.041a4.414 4.414 0 01-1.217 6.116l-4.066 2.722a4.414 4.414 0 01-6.126-1.217l-16.048-24.035a4.414 4.414 0 011.22-6.122l4.086-2.728a4.415 4.415 0 016.124 1.223zm24.769 37.174l16.047 24.101a4.413 4.413 0 01-1.221 6.115l-4.078 2.726a4.414 4.414 0 01-6.126-1.222l-16.057-24.097a4.413 4.413 0 011.222-6.118l4.088-2.73a4.415 4.415 0 016.125 1.225zm-41.909-25.729l40.798 61.211a4.413 4.413 0 01-1.22 6.117l-4.077 2.725a4.414 4.414 0 01-6.125-1.22l-40.822-61.203a4.414 4.414 0 011.224-6.122l4.101-2.734a4.417 4.417 0 016.121 1.226zm22.853-106.435l40.818-61.257a4.413 4.413 0 016.124-1.223l4.087 2.729a4.414 4.414 0 011.221 6.12l-40.834 61.222a4.414 4.414 0 01-6.108 1.232l-4.071-2.694a4.414 4.414 0 01-1.237-6.129zm-17.148-11.432l40.826-61.269a4.414 4.414 0 016.126-1.222l4.077 2.725a4.413 4.413 0 011.22 6.116l-40.815 61.273a4.413 4.413 0 01-6.124 1.224l-4.088-2.729a4.413 4.413 0 01-1.222-6.118zm-17.156-11.384l40.829-61.33a4.413 4.413 0 016.127-1.223l4.077 2.726a4.414 4.414 0 011.222 6.114L98.441 195.25a4.414 4.414 0 01-6.123 1.228l-4.101-2.734a4.413 4.413 0 01-1.226-6.119zm251.501 167.564l16.048-24.035a4.415 4.415 0 016.127-1.217l4.066 2.723a4.414 4.414 0 011.217 6.116l-16.028 24.04a4.414 4.414 0 01-6.123 1.223l-4.086-2.728a4.413 4.413 0 01-1.221-6.122zm24.751-37.049l16.073-24.154a4.413 4.413 0 016.123-1.227l4.096 2.73a4.413 4.413 0 011.222 6.124l-16.107 24.116a4.414 4.414 0 01-6.109 1.228l-4.062-2.692a4.415 4.415 0 01-1.236-6.125zm-7.617 48.558l16.058-24.098a4.414 4.414 0 016.122-1.225l4.104 2.737a4.413 4.413 0 011.225 6.118l-16.047 24.101a4.414 4.414 0 01-6.12 1.228l-4.115-2.739a4.415 4.415 0 01-1.227-6.122zm24.776-37.234l16.066-24.042a4.414 4.414 0 016.118-1.22l4.101 2.734a4.413 4.413 0 011.221 6.125l-16.065 24.042a4.414 4.414 0 01-6.118 1.22l-4.102-2.735a4.414 4.414 0 01-1.221-6.124zm-7.631 48.617l16.075-24.056a4.413 4.413 0 016.103-1.23l4.087 2.701a4.414 4.414 0 011.239 6.131l-16.063 24.088a4.414 4.414 0 01-6.121 1.224l-4.099-2.732a4.416 4.416 0 01-1.221-6.126zm24.782-37.112l16.036-24.085a4.413 4.413 0 016.127-1.223l4.072 2.722a4.414 4.414 0 011.218 6.119l-16.048 24.053a4.414 4.414 0 01-6.11 1.229l-4.059-2.691a4.413 4.413 0 01-1.236-6.124z" fill="#464655"/></svg>