<svg xmlns="http://www.w3.org/2000/svg" viewBox="0 0 512 512"><path d="M400 0H256v512h144c61.856 0 112-50.144 112-112V112C512 50.144 461.856 0 400 0z" fill="#ff4b55"/><path d="M112 0C50.144 0 0 50.144 0 112v288c0 61.856 50.144 112 112 112h144V0H112z" fill="#f5f5f5"/><path d="M127.596 39.754v36.052c1.985.078 4.2.979 6.041 2.82 1.841 1.841 2.743 4.056 2.82 6.041h36.052v35.93h-36.052c-.078 1.985-.979 4.2-2.82 6.041-1.84 1.841-4.055 2.742-6.041 2.82v36.052h-35.93v-36.052c-1.985-.077-4.2-.979-6.041-2.82-1.841-1.84-2.742-4.055-2.82-6.041H46.754v-35.93h36.052c.077-1.985.979-4.2 2.82-6.041 1.841-1.84 4.055-2.742 6.041-2.82V39.754h35.929m4.492-4.491H87.176V72.27c-1.715.703-3.323 1.778-4.725 3.18-1.402 1.403-2.478 3.011-3.181 4.726H42.263v44.912H79.27c.703 1.715 1.779 3.324 3.181 4.726 1.402 1.402 3.01 2.477 4.725 3.18V170h44.912v-37.006c1.715-.703 3.324-1.779 4.726-3.181 1.402-1.401 2.477-3.01 3.18-4.725H177V80.176h-37.006c-.703-1.715-1.779-3.323-3.181-4.726-1.402-1.402-3.01-2.477-4.725-3.18V35.263z" fill="#ff4b55"/><path fill="#cdcdcd" d="M172.509 84.667h-44.913V39.754H91.667v44.913H46.754v35.929h44.913v44.913h35.929v-44.913h44.913z"/><g fill="#b4a08c"><circle cx="109.63" cy="102.63" r="17.965"/><ellipse transform="rotate(-134.999 89.58 122.686)" cx="89.579" cy="122.685" rx="7.989" ry="5.592"/><ellipse transform="rotate(-45.001 129.686 122.683)" cx="129.687" cy="122.681" rx="7.989" ry="5.592"/><ellipse transform="rotate(45.001 129.685 82.58)" cx="129.684" cy="82.581" rx="7.989" ry="5.592"/><ellipse transform="rotate(134.999 89.578 82.583)" cx="89.577" cy="82.583" rx="7.989" ry="5.592"/><path d="M109.632 127.224c-13.561 0-24.592-11.031-24.592-24.592S96.071 78.04 109.632 78.04s24.592 11.031 24.592 24.592-11.031 24.592-24.592 24.592zm0-46.939c-12.32 0-22.346 10.026-22.346 22.346s10.026 22.347 22.346 22.347 22.347-10.026 22.347-22.347-10.027-22.346-22.347-22.346z"/></g></svg>