<svg xmlns="http://www.w3.org/2000/svg" viewBox="0 0 512 512"><path d="M400 0H112C50.144 0 0 50.144 0 112v288c0 61.856 50.144 112 112 112h288c61.856 0 112-50.144 112-112V112C512 50.144 461.856 0 400 0z" fill="#73af00"/><path fill="#ffe15a" d="M256 46.998l208.995 208.996L256 464.989 47.004 255.994z"/><circle cx="256" cy="256" r="86.62" fill="#41479b"/><path d="M181.671 211.689a85.997 85.997 0 00-9.327 22.172c48.019-3.614 119.052 9.819 164.264 53.69a86.01 86.01 0 005.63-23.946c-46.685-39.289-111.225-53.261-160.567-51.916zm77.916 73.87l2.306 6.915 7.29.056c.944.007 1.335 1.212.576 1.772l-5.864 4.331 2.199 6.95c.285.9-.74 1.644-1.508 1.095l-5.931-4.239-5.931 4.239c-.768.549-1.792-.196-1.508-1.095l2.199-6.95-5.864-4.33c-.759-.561-.368-1.765.576-1.772l7.29-.056 2.306-6.915c.299-.896 1.566-.896 1.864-.001zm28.332 17.889l.993 2.977 3.137.024a.423.423 0 01.248.763l-2.524 1.864.946 2.991a.423.423 0 01-.649.471l-2.553-1.824-2.553 1.824a.423.423 0 01-.649-.471l.946-2.991-2.524-1.864a.423.423 0 01.248-.763l3.138-.024.993-2.977c.13-.385.675-.385.803 0zm-40.581-31.025l.993 2.977 3.137.024a.423.423 0 01.248.763l-2.524 1.864.946 2.991a.422.422 0 01-.649.471l-2.553-1.824-2.553 1.824a.423.423 0 01-.649-.471l.946-2.991-2.524-1.864a.423.423 0 01.248-.763l3.137-.024.993-2.977a.424.424 0 01.804 0zm-54.96-3.609l.993 2.977 3.137.024a.423.423 0 01.248.763l-2.524 1.864.946 2.991a.423.423 0 01-.649.471l-2.553-1.824-2.553 1.824a.423.423 0 01-.649-.471l.947-2.991-2.524-1.864a.423.423 0 01.248-.763l3.137-.024.993-2.977a.423.423 0 01.803 0zm45.977 33.607l.993 2.977 3.138.024a.423.423 0 01.248.763l-2.524 1.864.946 2.991a.422.422 0 01-.649.471l-2.553-1.824-2.553 1.824a.423.423 0 01-.649-.471l.946-2.991-2.524-1.864a.423.423 0 01.248-.763l3.137-.024.993-2.977c.13-.385.675-.385.803 0zm-25.298-35.684l.812 2.434 2.566.02c.332.003.47.427.203.624l-2.064 1.524.774 2.446c.1.317-.26.579-.531.386l-2.087-1.492-2.087 1.492a.346.346 0 01-.531-.386l.774-2.446-2.064-1.524a.346.346 0 01.203-.624l2.566-.02.812-2.434c.103-.315.549-.315.654 0zm77.065-50.241l1.015 3.044 3.209.025a.432.432 0 01.253.78l-2.581 1.906.968 3.06a.432.432 0 01-.664.482l-2.611-1.866-2.611 1.866a.432.432 0 01-.664-.482l.968-3.06-2.581-1.906a.432.432 0 01.253-.78l3.209-.025 1.015-3.044a.434.434 0 01.822 0zm-94.209 35.353l.812 2.434 2.566.02c.332.003.47.426.203.624l-2.064 1.524.774 2.446c.1.317-.26.579-.531.386l-2.088-1.492-2.087 1.492a.346.346 0 01-.531-.386l.774-2.446-2.064-1.524a.346.346 0 01.203-.624l2.566-.02.812-2.434a.345.345 0 01.655 0zm12.389 34.301l1.229 3.686 3.886.03a.524.524 0 01.307.945l-3.126 2.308 1.172 3.705a.524.524 0 01-.804.584l-3.161-2.26-3.161 2.26a.524.524 0 01-.804-.584l1.172-3.705-3.126-2.308a.524.524 0 01.307-.945l3.886-.03 1.229-3.686a.524.524 0 01.994 0zm95.415 18.071l.773 2.319 2.445.019a.33.33 0 01.193.594l-1.967 1.452.737 2.331a.33.33 0 01-.506.367l-1.989-1.422-1.989 1.422a.33.33 0 01-.506-.367l.737-2.331-1.967-1.452a.33.33 0 01.193-.594l2.445-.019.773-2.319c.103-.3.528-.3.628 0zm8.554-17.7l.993 2.977 3.138.024a.423.423 0 01.248.763l-2.524 1.864.946 2.992a.422.422 0 01-.649.471l-2.553-1.824-2.553 1.824a.423.423 0 01-.649-.471l.946-2.992-2.524-1.864a.423.423 0 01.248-.763l3.137-.024.993-2.977c.13-.385.675-.385.803 0z" fill="#f5f5f5"/></svg>