<svg xmlns="http://www.w3.org/2000/svg" viewBox="0 0 512 512"><path d="M400 0H112C50.144 0 0 50.144 0 112v288c0 61.856 50.144 112 112 112h288c61.856 0 112-50.144 112-112V112C512 50.144 461.856 0 400 0z" fill="#ff4b55"/><path d="M114.021 87.182l12.722 38.146 40.21.312c5.206.04 7.365 6.684 3.177 9.777l-32.348 23.887 12.129 38.339c1.57 4.964-4.081 9.07-8.317 6.042l-32.714-23.383-32.714 23.383c-4.235 3.027-9.887-1.079-8.317-6.042l12.129-38.339-32.348-23.887c-4.188-3.093-2.029-9.736 3.177-9.777l40.21-.312 12.722-38.146c1.649-4.939 8.635-4.939 10.282 0zm146.016 9.4l9.122 12.44 14.723-4.604c1.906-.596 3.474 1.577 2.307 3.198l-9.012 12.52 8.928 12.58c1.156 1.629-.427 3.791-2.329 3.183l-14.692-4.702-9.205 12.378c-1.192 1.603-3.738.766-3.746-1.231l-.068-15.426-14.617-4.929c-1.893-.638-1.883-3.318.013-3.944l14.65-4.831.171-15.425c.023-1.998 2.574-2.818 3.755-1.207zm-55.541-37.081l15.336 1.667 6.542-13.97c.847-1.809 3.509-1.499 3.917.457l3.154 15.1 15.308 1.905c1.982.247 2.509 2.874.776 3.866l-13.387 7.665 2.919 15.147c.378 1.961-1.958 3.275-3.437 1.933l-11.427-10.363-13.504 7.457c-1.748.965-3.719-.85-2.901-2.672l6.324-14.07-11.265-10.539c-1.458-1.363-.34-3.799 1.645-3.583zm24.243 149.496l-9.122 12.44-14.723-4.604c-1.906-.596-3.474 1.577-2.307 3.198l9.012 12.52-8.928 12.58c-1.156 1.629.426 3.791 2.329 3.183l14.692-4.702 9.205 12.378c1.192 1.603 3.738.766 3.746-1.231l.068-15.426 14.617-4.929c1.892-.638 1.883-3.318-.013-3.943l-14.65-4.831-.171-15.425c-.022-1.999-2.574-2.819-3.755-1.208zm55.542-34.846l-15.336 1.667-6.542-13.97c-.847-1.809-3.509-1.499-3.917.456l-3.154 15.1-15.308 1.905c-1.982.247-2.509 2.874-.776 3.866l13.387 7.665-2.919 15.147c-.378 1.961 1.958 3.275 3.437 1.933l11.427-10.363 13.504 7.457c1.748.965 3.719-.85 2.901-2.672l-6.324-14.07 11.265-10.539c1.458-1.362.34-3.798-1.645-3.582z" fill="#ffe15a"/></svg>