<svg xmlns="http://www.w3.org/2000/svg" height="512" width="512"><path d="M496 0H286c-8.284 0-15 6.716-15 15v260c0 8.284 6.716 15 15 15h143.787l55.606 55.606a14.994 14.994 0 0016.346 3.252 15.001 15.001 0 009.26-13.858V15C511 6.716 504.284 0 496 0zm-40 130h-10.978c-3.123 23.867-13.59 45.455-29.054 62.414A84.472 84.472 0 00451 200c8.284 0 15 6.716 15 15s-6.716 15-15 15c-21.972 0-42.521-6.198-60-16.931C373.522 223.802 352.972 230 331 230c-8.284 0-15-6.716-15-15s6.716-15 15-15a84.468 84.468 0 0035.032-7.586C350.568 175.455 340.1 153.867 336.978 130H326c-8.284 0-15-6.716-15-15s6.716-15 15-15h50V75c0-8.284 6.716-15 15-15s15 6.716 15 15v25h50c8.284 0 15 6.716 15 15s-6.716 15-15 15z" data-original="#000000" class="active-path" data-old_color="#000000" fill="#4949E7"/><path d="M391 175.148c12.068-12.039 20.523-27.681 23.648-45.148h-47.295c3.124 17.467 11.579 33.11 23.647 45.148zM100.59 327.624h41.01l-20.411-54.086z" data-original="#000000" class="active-path" data-old_color="#000000" fill="#4949E7"/><path d="M226 162H16c-8.284 0-15 6.716-15 15v320a14.998 14.998 0 0014.997 15c3.903 0 7.74-1.524 10.609-4.394L82.213 452H226c8.284 0 15-6.716 15-15V177c0-8.284-6.716-15-15-15zm-44.438 229.034c-1.743.658-3.534.97-5.293.97-6.062 0-11.77-3.701-14.037-9.708l-9.311-24.673H89.164l-9.413 24.715c-2.948 7.741-11.61 11.628-19.356 8.679-7.741-2.948-11.627-11.615-8.679-19.356l52.569-138.028a18.11 18.11 0 0116.935-11.632h.021a18.11 18.11 0 0116.806 11.256c.057.137.11.275.163.413l52.092 138.034c2.924 7.751-.989 16.405-8.74 19.33z" data-original="#000000" class="active-path" data-old_color="#000000" fill="#4949E7"/></svg>